<?xml version="1.0" encoding="utf-8"?>
<!-- Generator: Adobe Illustrator 24.0.3, SVG Export Plug-In . SVG Version: 6.00 Build 0)  -->
<svg version="1.1" id="Camada_1" xmlns="http://www.w3.org/2000/svg" xmlns:xlink="http://www.w3.org/1999/xlink" x="0px" y="0px"
	 viewBox="0 0 595.28 841.89" style="enable-background:new 0 0 595.28 841.89;" xml:space="preserve">
<style type="text/css">
	.st0{fill:#FB595B;}
	.st1{fill:#881C1E;}
	.st2{fill:#891C1E;}
	.st3{fill:#8B1E20;}
	.st4{fill:#B45355;}
	.st5{fill:#FEFEFE;}
	.st6{fill:#FEFDFD;}
	.st7{fill:#983234;}
</style>
<path class="st0" d="M397.95,733.31c-2.52-3.85-4.66-7.86-4.95-12.57c-0.58-9.34,3.2-16.6,10.67-22.05
	c5.18-3.78,11.06-6.01,17.14-7.81c0.87-0.26,1.73-0.57,2.59-0.86c1.65-1.33,3.62-1.35,5.38-1.43c-4.29-0.59-7.77-3.08-10.91-6.18
	c-0.4-0.72-0.93-1.35-1.34-2.06c-0.31-0.21-0.61-0.42-0.92-0.62c-0.98-1.05-1.65-2.3-2.22-3.6c-0.65-1.46-1.61-1.96-3.19-1.52
	c-5.22,1.46-10.51,1.49-15.82,0.64c-1.62-0.26-2.71,0.29-3.64,1.54c-6.12,8.2-14.46,11.82-24.54,12.3
	c-6.82,0.33-13.22-0.63-19.33-3.77c-3.43-1.76-6.21-4.19-8.48-7.21c-1.15-1.54-2.27-1.8-4.04-1.14c-7.39,2.74-14.94,3.05-22.56,1.07
	c-1.7-0.44-2.83,0.1-4.03,1.18c-7.06,6.36-15.29,10.34-24.74,11.53c-8.21,1.03-16.15,0.21-23.27-4.48
	c-1.44-0.95-2.19-0.72-3.26,0.58c-5.97,7.21-15.21,7.72-21.89,1.2c-1.22-1.19-2.27-1.24-3.78-0.75c-8.56,2.76-16.99,2.77-25.21-1.38
	c-2.38-1.2-4.32-2.77-5.66-5.08c-5.37-6.97-5.71-14.63-2.95-22.62c3.52-10.19,7.19-20.34,10.77-30.51c0.38-1.08,0.97-2.13,0.79-3.35
	c-0.17-0.56-0.18-1.15-0.25-1.72c-0.35-2.95-2.3-4.34-5.24-3.84c-3.91,0.67-6.41,3.37-8.83,6.13c-1.59,1.82-2.76,3.91-3.57,6.24
	c-5.53,15.96-11.16,31.88-16.92,47.76c-2.02,5.56-5.83,9.22-11.79,10.34c-2.25,0.42-4.54,0.46-6.59-0.63
	c-2.02-1.07-3.92-0.8-6.02-0.36c-8.5,1.78-16.68,1.1-24.34-3.41c-1.95-1.14-3.24-2.81-4.53-4.55c-5.44-7.13-5.79-14.86-2.92-23.08
	c5.56-15.91,10.99-31.86,16.54-47.77c2.12-6.08,7.14-9.61,12.76-9.22c4.34,0.3,7.41,2.78,8.7,6.99c0.22,0.71,0.56,1.37,0.84,2.06
	c0.31,2.56-0.52,4.91-1.35,7.25c-5.23,14.71-10.22,29.5-15.57,44.16c-1.34,3.67-1.82,6.87,1.62,9.58c2.93,0.75,5.6,0.09,8.06-1.54
	c3.91-2.59,6.82-5.96,8.42-10.48c6.07-17.14,12.25-34.25,18.37-51.38c2.45-6.86,12.61-9.29,17.74-4.08c1.08,1.1,1.59,1.02,2.77,0.37
	c9.89-5.42,24.13-3.82,31.22,6.07c1.57,2.19,2.29,4.78,3.75,7c1.69,5.03,0.39,9.84-1.3,14.53c-3.66,10.17-7.07,20.42-10.81,30.56
	c-0.23,0.62-0.44,1.26-0.62,1.9c-1.1,3.75-0.71,4.9,2.38,7.17c5.13,0.5,8.62-2.44,11.74-5.84c4.51-4.91,7.51-10.76,9.71-17
	c9.39-26.64,18.75-53.29,28.07-79.96c1.97-5.65,5.32-9.65,11.63-10.07c4.54-0.3,8.86,0.64,11.96,4.31c0.98,1.16,1.46,0.56,2.18,0.08
	c13.22-8.87,33.47-2.59,41.4,9.5c1.59,2.42,2.73,5.06,3.77,7.75c2.24,4.79,1.76,9.73,0.67,14.66c-1.18,5.29-3.31,10.28-5,15.42
	c-5.12,15.48-10.45,30.89-15.64,46.34c-1.05,3.14-1.06,3.14,2.17,3.3c0.51,0.02,0.99,0.08,1.4,0.42c5.6-1,9.9-3.65,11.89-9.28
	c3.27-9.24,6.51-18.49,9.83-27.71c5.08-14.11,18.53-22.86,33.55-22.15c9.45,0.45,17.56,3.43,23.41,11.21
	c1.89,2.52,3.16,5.38,4.24,8.33c1.43,3.48,0.97,7.03,0.38,10.57c-0.96,5.8-2.97,11.26-5.46,16.56c-0.64,1.37-1.42,2.64-2.5,3.71
	c-0.95,0.94-1.33,2.06-1.29,3.39c0.06,1.78,0.65,2.92,2.71,2.62c0.49-0.07,1-0.1,1.42,0.28c6.47-0.78,11.37-4.06,13.73-10.08
	c3.43-8.74,6.3-17.7,9.45-26.55c5.27-14.81,19.76-22.81,35.04-19.37c3.82,0.86,7.22,2.55,10.03,5.28c1.05,1.01,1.47,1.3,2.38-0.28
	c3.14-5.45,9.85-7.22,15.42-4.39c3.01,1.53,4.06,4.22,4.62,7.27c0.59,0.92,0.4,1.89,0.28,2.9c-0.66,5.28-2.91,10.07-4.66,15
	c-5.56,15.7-11.11,31.4-16.84,47.17c2.37-0.36,3.72-2.71,6.07-2.89c3.46-1.75,6.29-4.29,8.85-7.13c5.09-5.66,9.2-11.92,11.63-19.23
	c1.63-4.9,5.77-7.88,10.39-7.86c4.54,0.02,7.43,2.42,8.35,6.92c0.08,0.4,0.25,0.78,0.39,1.17c0.24,1.09,0.09,2.14-0.24,3.19
	c-6.1,19.42-17.87,34.13-36.07,43.55c-4.89,2.53-9.92,4.74-15.16,6.39c-2.32,0.73-3.6,2.07-4.36,4.3
	c-2.01,5.91-4.01,11.82-6.37,17.6c-5.3,13.01-14.76,21.25-28.78,23.38c-9.41,1.43-18.41-0.07-26.21-6.17
	C399.91,735.96,398.94,734.64,397.95,733.31z"/>
<path class="st1" d="M456.66,270.3c-0.03,26.82-6.41,52.04-19.2,75.61c-2.58,4.75-5.39,9.38-8.59,13.75
	c-17.1,23.39-32.73,47.79-48.75,71.91c-22.97,34.59-46.2,69-69.19,103.58c-1.8,2.7-3.9,5.24-5.36,8.12
	c-2.82,5.54-8.66,5.36-12.13,0.15c-26.66-40.04-53.55-79.93-80.4-119.84c-14.63-21.75-29.3-43.48-44-65.19
	c-19.01-28.06-27.81-59.11-26.9-92.87c1.93-71.6,53.78-133.85,123.85-148.61c39.19-8.26,76.73-3.14,111.39,17.03
	c39.82,23.17,65.17,57.59,75.61,102.67C455.55,247.68,456.76,258.92,456.66,270.3z"/>
<path class="st0" d="M50.09,686.35c-3.93-3.78-4.09-8.08-2.35-13.04c9.91-28.22,19.68-56.49,29.5-84.75
	c0.3-0.86,0.52-1.74,0.78-2.62c-0.46-1.14,0.23-2.1,0.51-3.11c0.64-2.3,0.44-2.68-1.93-2.71c-4.65-0.06-9.3-0.01-13.95-0.02
	c-2.24,0-4.48,0.04-6.73-0.03c-1.74-0.06-3.26-0.57-4.27-2.13c-2.92-2.92-4.42-6.31-2.84-10.39c1.7-4.39,5.41-6.09,9.77-6.65
	c1.31-0.17,2.66-0.11,3.99-0.11c22.97-0.01,45.93,0,68.9,0c6.55,0,8.18,1.15,10.41,7.38c0.14,0.38,0.37,0.74,0.55,1.11
	c0.48,5.74-4.82,10.73-10.71,10.76c-7.49,0.04-14.98,0-22.47,0.02c-3.35,0.01-3.5,0.14-4.61,3.34
	c-11.21,32.23-22.59,64.39-33.68,96.66c-2.6,7.55-10.87,10.85-18.38,8.22C51.56,687.91,50.56,687.46,50.09,686.35z"/>
<path class="st1" d="M199.95,680.85c3.88,3.85,8.48,6.36,13.91,7.22c5.92,0.93,11.76,0.66,17.36-1.61c1.53-0.62,2.37-0.59,3.55,0.77
	c6.1,7.02,16.98,6.06,21.99-1.83c0.46-0.73,0.55-1.71,1.9-0.7c8.19,6.12,17.49,6.75,27.11,4.94c8.63-1.63,16.12-5.64,22.41-11.78
	c0.98-0.96,1.82-1.04,3.1-0.67c8.08,2.31,16.08,1.93,23.87-1.26c1.43-0.58,2.12-0.47,3.04,0.82c5.53,7.73,13.33,11.17,22.63,11.68
	c7.87,0.43,15.39-0.57,22.15-5.04c3.18-2.1,5.75-4.79,7.86-7.91c0.68-1,1.41-1.3,2.5-1.09c6.13,1.2,12.2,1.04,18.19-0.79
	c0.57-0.17,1.22-0.43,1.49,0.33c0.72,2.01,2.21,3.67,2.6,5.82c-6.24,2-12.58,2.33-18.97,0.99c-1.21-0.25-1.73-0.03-2.38,0.95
	c-5.82,8.74-14.31,12.58-24.51,13.19c-6.06,0.36-11.92-0.36-17.54-2.92c-4.37-2-7.95-4.88-10.62-8.81
	c-0.98-1.44-1.68-1.44-3.15-0.84c-7.73,3.16-15.67,3.6-23.7,1.25c-1.48-0.43-2.33-0.2-3.44,0.85c-9.22,8.73-20.24,12.92-32.91,12.42
	c-5.83-0.23-11.33-1.89-16.04-5.5c-1.26-0.97-1.57-0.58-2.3,0.52c-5.34,8.08-16.17,8.71-22.31,1.25c-0.96-1.17-1.59-0.84-2.65-0.45
	c-8.47,3.14-16.93,3.39-25.19-0.64C205.12,689.67,201.49,686.16,199.95,680.85z"/>
<path class="st1" d="M397.95,733.31c3.33,2.87,6.59,5.79,10.87,7.3c12.92,4.56,24.85,2.81,35.7-5.58c5.9-4.57,9.53-10.76,12.01-17.7
	c2.01-5.63,4.12-11.23,6.07-16.88c0.52-1.52,1.41-2.22,2.88-2.7c9.54-3.1,18.61-7.18,26.7-13.21c12.72-9.48,20.88-22.12,25.58-37.15
	c0.27-0.86-0.06-1.87,0.67-2.6c3.37,2.79,3.6,6.28,2.32,10.16c-6.92,21.01-20.43,36.05-40.73,44.88c-3.72,1.62-7.55,3.02-11.4,4.32
	c-1.43,0.48-2.17,1.2-2.65,2.58c-2.11,6.03-4.31,12.03-6.49,18.04c-6.63,18.28-24.64,28.21-43.21,23.56
	C407.94,746.22,401.24,741.75,397.95,733.31z"/>
<path class="st2" d="M50.09,686.35c5.5,2.97,10.91,3.24,16.13-0.62c1.77-1.31,3.07-3.03,3.8-5.14c9.3-26.68,18.6-53.35,27.91-80.02
	c2.19-6.28,4.44-12.53,6.54-18.84c0.57-1.71,1.4-2.33,3.21-2.31c7.57,0.09,15.15,0.09,22.72,0c6.95-0.08,10.09-2.72,11.64-9.53
	c0.05-0.22,0.26-0.41,0.39-0.61c2.79,2.92,3.64,6.35,2.16,10.1c-1.77,4.49-5.52,6.36-10.06,6.46c-7.91,0.17-15.82,0.14-23.72,0.03
	c-1.75-0.02-2.38,0.57-2.93,2.14c-11.42,32.86-22.92,65.69-34.36,98.54c-2.73,7.84-13.23,11.12-19.84,6.08
	C51.61,691.06,50.23,689.04,50.09,686.35z"/>
<path class="st2" d="M120.47,680.34c4.17,4.19,9.16,6.84,15,7.74c5.3,0.82,10.59,0.68,15.76-0.9c0.92-0.28,1.72-0.47,2.6,0.11
	c5.77,3.83,15.97,0.87,19.17-8.13c5.79-16.29,11.41-32.63,17.4-48.84c2.2-5.96,6.16-10.68,12.78-12.22c4-0.93,6.63,2.23,5.39,6.27
	c-3.19-0.24-5.85,1.01-8.16,3.06c-3.35,2.97-5.83,6.47-7.33,10.78c-5.44,15.67-11.02,31.3-16.58,46.93
	c-2.58,7.25-8.98,11.09-16.13,9.79c-0.16-0.03-0.38,0.02-0.49-0.07c-3.31-2.53-6.7-0.78-10.1-0.29c-7.01,1.01-13.8,0.24-20.03-3.31
	C125.37,688.77,121.97,685.32,120.47,680.34z"/>
<path class="st0" d="M149.93,583.78c-0.46-0.86-0.86-1.76-1.4-2.57c-3.26-4.82-3.49-9.53-0.62-13.94c2.89-4.45,7.51-6.41,12.88-5.47
	c4.92,0.86,8.61,4.63,9.8,10.02c2.48,5.05-2.67,12.77-8.24,14.41C157.69,587.61,153.7,586.45,149.93,583.78z"/>
<path class="st2" d="M325.11,659.33c-0.49,0.08-0.98,0.16-1.48,0.24c-3.56,0.54-4.13-0.1-3.01-3.4
	c5.79-17.08,11.52-34.19,17.42-51.24c2.9-8.38,5.73-16.69,3.47-25.74c2.74,3.06,3.43,6.92,3.94,10.75
	c0.65,4.85-0.14,9.59-1.71,14.23C337.52,622.55,331.32,640.94,325.11,659.33z"/>
<path class="st2" d="M478.83,670.92c-1.97,1.84-4.41,2.91-7.27,4.58c1.34-3.85,2.49-7.21,3.68-10.55
	c5.7-15.97,11.42-31.94,17.11-47.91c0.96-2.68,1.33-5.48,1.63-8.29c3.88,2.89,3.58,6.97,2.68,10.9c-1.61,7.06-4.59,13.69-6.95,20.51
	C486.14,650.43,482.46,660.66,478.83,670.92z"/>
<path class="st2" d="M141.08,670.31c-3.42-1.67-4.31-3.62-3.04-7.28c5.29-15.23,10.6-30.45,16.01-45.63
	c0.95-2.66,1.36-5.45,2.33-8.08c2.96,2.97,3.54,6.56,2.26,10.37c-3.37,10-6.87,19.95-10.33,29.92
	C145.92,656.51,143.5,663.41,141.08,670.31z"/>
<path class="st2" d="M221.06,670.42c-2.84-0.29-3.6-1.16-3.63-3.91c-0.03-2.41,0.97-4.53,1.72-6.7c3.46-9.93,7-19.84,10.5-29.76
	c1.47-4.18,2.5-8.42,1.45-12.9c-0.06-0.25,0.2-0.58,0.32-0.88c4.01,6.09,4.26,12.55,1.9,19.27
	C229.23,647.17,225.15,658.79,221.06,670.42z"/>
<path class="st2" d="M403.3,656.87c-1.47,0.19-3.12,1.31-4.33-0.32c-1.07-1.44-0.49-4.73,0.84-6.16c2.86-3.08,4.13-7.01,5.44-10.83
	c2.13-6.19,4.02-12.5,2.48-19.21c-0.04-0.17,0.2-0.41,0.31-0.62c2.42,2.75,3.27,6.17,3.4,9.62
	C411.85,639.4,408.5,648.43,403.3,656.87z"/>
<path class="st2" d="M149.93,583.78c0.47-0.53,0.87-0.21,1.28,0.09c9,6.43,20.61-1.33,19.39-11.31c-0.03-0.25-0.01-0.5-0.01-0.75
	c3.62,3.83,4.52,8.5,2.52,13.03c-2.24,5.06-6.65,7.87-11.98,7.64C155.83,592.26,151.89,589.2,149.93,583.78z"/>
<path class="st2" d="M51.64,577.94c1.97,1.26,4.13,1.56,6.43,1.53c6.57-0.06,13.14,0.05,19.7-0.06c2.23-0.04,2.66,0.67,1.78,2.6
	c-0.58,1.28-1.04,2.62-1.55,3.93c-5.66-0.01-11.31,0-16.97-0.03C55.65,585.89,52.63,583.31,51.64,577.94z"/>
<path class="st3" d="M417.97,681.82c3.29,3.23,7.14,5.51,11.61,7c-2.06,0.4-4.12,0.8-6.18,1.21c-2.64-2.03-4.66-4.54-5.98-7.6
	C417.23,681.88,417.51,681.77,417.97,681.82z"/>
<path class="st4" d="M417.97,681.82c-0.18,0.2-0.36,0.4-0.54,0.6c-0.59-0.56-0.78-1.3-0.89-2.06
	C417.16,680.7,417.65,681.17,417.97,681.82z"/>
<path class="st5" d="M316.44,588.41c0.34,2.87-0.17,5.64-1.09,8.33c-5.18,15.33-10.39,30.65-15.53,45.99c-0.56,1.68-0.94,2-2.58,0.9
	c-6.08-4.09-12.82-6.19-20.22-5.9c-0.7-0.89-0.18-1.77,0.11-2.59c3.92-11.03,7.59-22.16,11.72-33.12c1.71-4.54,4.05-8.78,7.82-11.99
	c4.53-3.84,9.66-5.81,15.67-4.25C313.95,586.23,315.55,586.81,316.44,588.41z"/>
<path class="st5" d="M464.98,625.84c0.24,1.59,0.04,3.12-0.51,4.64c-3.52,9.67-6.82,19.43-10.55,29.02
	c-2.23,5.76-6.2,9.96-12.71,11.06c-1.29,0.22-2.46-0.26-3.7-0.29c-0.77-1.09-0.1-2.1,0.25-3.07c4.39-12.11,8.57-24.3,12.96-36.41
	c1.85-5.11,5.72-7.69,10.44-6.99C462.65,624.03,464.13,624.37,464.98,625.84z"/>
<path class="st2" d="M316.44,588.41c-7.15-5.06-17.24-1.87-22.53,5.52c-1.55,2.17-3.02,4.42-3.91,6.93
	c-4.37,12.28-8.65,24.59-12.97,36.89c-1.8,0.04-4.53,0.79-5.19-0.06c-0.97-1.25,0.73-3.32,1.31-5c4.2-12.15,8.41-24.3,12.82-36.38
	c2.38-6.52,5.86-12.32,12.65-15.27c3.14-1.37,6.46-1.72,9.75-1.06C312.91,580.87,315.49,583.93,316.44,588.41z"/>
<path class="st5" d="M386.08,624.97c1.05,1.71,0.21,3.41-0.16,5.04c-0.5,2.18-1.41,4.26-1.89,6.44c-0.34,1.58-1.47,1.09-2.32,1.19
	c-8.54,0.98-14.02,7.66-13.32,16.2c0.25,2.98,1.8,5.29,3.6,7.5c0.48,0.97,1.3,1.81,1.04,3.03c-2.3,4.73-7.65,7.23-12.67,6.05
	c-1.17-0.28-1.43-0.94-1.49-1.91c-1.1-1.84-0.16-3.6,0.41-5.25c2.66-7.69,5.29-15.39,8.07-23.04c1.14-3.12,1.87-6.4,3.42-9.35
	c2.45-4.69,6.45-7.01,11.69-7.14C383.77,623.7,385.16,623.75,386.08,624.97z"/>
<path class="st2" d="M386.08,624.97c-7.31-1.84-13.16,1.32-15.64,8.44c-3.38,9.69-6.77,19.38-10.18,29.06
	c-0.69,1.96-1.26,3.94-1.38,6.04c-0.82,1.23-1.37,0.63-1.98-0.24c-2.26-3.23-1.75-6.77-0.66-10.06c3.68-11.1,7.53-22.14,11.53-33.12
	c1.89-5.2,9.09-8.34,14.34-6.63c2.61,0.85,4.05,2.75,4.61,5.4C386.86,624.48,386.61,624.78,386.08,624.97z"/>
<path class="st2" d="M464.98,625.84c-6.24-3.22-11.43-1.15-13.78,5.52c-4.57,12.97-9.12,25.95-13.68,38.92
	c-3.36-1.64-4.3-3.27-3.13-6.8c2.89-8.68,5.99-17.28,9.02-25.91c1.57-4.47,3.09-8.97,4.74-13.41c2.22-5.99,8.69-8.13,13.57-4.46
	C463.69,621.19,464.99,623.21,464.98,625.84z"/>
<path class="st2" d="M270.78,669.92c-2.5-0.45-4.08-3.03-3.47-5.67c0.87-3.79,4.16-6.67,8.53-7.34c6.02-0.93,10.9,1.53,15.08,5.5
	c1.58,1.49-0.54,2.1-1.29,2.96c-1.96,0.07-3.58-1.15-5.48-1.41c-5.13-0.72-9.28,0.68-12.27,5.05
	C271.6,669.42,271.35,669.87,270.78,669.92z"/>
<path class="st2" d="M419.41,723.83c-4.82-0.95-4.4-6.33-1.76-9.86c1.26-1.68,3-2.86,4.85-3.86c3.98-2.16,8.29-3.35,13.08-4.67
	c-0.88,3.06-1.63,5.78-3.07,8.29c-0.35,0.47-0.74,0.9-1.31,1.08C426.21,716.41,422.01,719.07,419.41,723.83z"/>
<path class="st6" d="M270.78,669.92c2.5-5.78,8.95-8.33,15.49-6.14c1.18,0.4,2.35,0.82,3.36,1.58c-4.55,4.81-10.11,6.79-16.66,5.92
	C272.11,671.17,271.11,671.01,270.78,669.92z"/>
<path class="st6" d="M419.41,723.83c0.54-3.15,2.73-4.98,5.21-6.59c2.45-1.59,5.11-2.7,7.89-3.52
	C431.48,720.25,426.04,724.44,419.41,723.83z"/>
<path class="st7" d="M373.04,664.37c-0.52-0.95-1.07-1.89-1.04-3.03C372.93,662.15,374.72,662.66,373.04,664.37z"/>
<path class="st0" d="M153.91,270.92c0.09-33.6,10.23-63.93,30.97-90.31c21.89-27.83,50.41-45.46,85.2-52.74
	c11.71-2.45,23.55-3.31,35.46-2.85c25.92,1,50.14,8.14,71.79,22.33c34.98,22.93,57.07,54.93,65.22,96.25
	c2.34,11.84,3.03,23.8,2.28,35.77c-1.5,23.71-8.2,45.96-20.62,66.27c-6.9,11.28-15.36,21.54-22.54,32.66
	c-7,10.84-14.33,21.46-21.49,32.2c-18.47,27.7-36.91,55.42-55.39,83.12c-7.9,11.84-15.85,23.65-23.78,35.47
	c-1.53,2.27-1.55,2.27-3.07,0.02c-16.07-23.9-32.13-47.81-48.19-71.72c-21.03-31.3-42.02-62.63-63.09-93.9
	c-6.93-10.28-14.36-20.21-19.5-31.62c-6.23-13.83-10.37-28.2-12.23-43.25C154.23,282.73,153.88,276.85,153.91,270.92z"/>
<path class="st1" d="M166.95,270.53c-0.36-72.35,58.54-132.52,132.5-132.6c74.29-0.09,133.1,60.9,132.59,133.88
	c-0.5,71.64-59.55,131.28-132.75,131.17C226.42,402.88,166.4,343.43,166.95,270.53z"/>
<path class="st2" d="M248.07,428.31c1.67-0.05,2.8,0.58,3.66,1.89c8.53,12.99,17.11,25.95,25.62,38.95
	c1.56,2.38,1.06,4.78-1.04,6.09c-2.02,1.26-4.45,0.62-5.98-1.7c-8.47-12.83-16.91-25.68-25.38-38.51c-0.99-1.5-1.36-3.04-0.44-4.68
	C245.31,428.93,246.5,428.14,248.07,428.31z"/>
<path class="st2" d="M240.45,412.94c-0.19,1.46-0.98,2.75-2.58,3.43c-1.71,0.72-3.41,0.49-4.53-0.94c-1.53-1.95-2.94-4.05-4.07-6.25
	c-0.79-1.55-0.49-3.31,0.9-4.58c1.35-1.23,2.94-1.43,4.63-0.7C236.33,404.57,240.48,411.01,240.45,412.94z"/>
<path class="st5" d="M300.34,393.89c-68.99-0.15-124.55-55.94-124.35-124.87c0.2-68.35,56.03-123.86,124.48-123.77
	c68.79,0.09,124.3,55.88,124.15,124.77C424.46,338.5,368.74,394.04,300.34,393.89z"/>
<g>
	<path class="st1" d="M352.62,330.41c0.08,6.4-1.45,14.98-7.11,22.51c-6.2,8.27-13.76,10.76-23.44,7.25
		c-4.22-1.53-8.36-3.26-12.57-4.79c-6.33-2.3-12.66-2.2-19.07-0.1c-5.52,1.81-10.72,4.51-16.46,5.74
		c-8.5,1.82-15.57-1.22-19.94-8.71c-5.08-8.7-6.58-18.27-6.38-28.12c0.31-15.27,5.89-28.28,17.87-38.03
		c10.89-8.85,23.64-12.15,37.54-11.51c11.02,0.51,21.13,3.73,29.87,10.52C346.8,295.94,352.65,310.5,352.62,330.41z"/>
	<path class="st1" d="M349.39,278.06c-0.03-21.53,19.29-38.21,40.5-34.56c14.17,2.44,20.97,12.3,19.85,27.64
		c-1.14,15.5-14.71,29.74-30,32.76C363.05,307.2,349.41,295.59,349.39,278.06z"/>
	<path class="st1" d="M358.48,228.09c0,9.69-2.69,18.48-8.71,26.2c-9.08,11.64-27.12,13.44-37.73,3.61
		c-4.95-4.58-7.15-10.59-7.75-17.11c-1.28-13.97,2.52-26.19,13.29-35.68c7.7-6.79,23.87-8.59,32.65-0.03
		c5.36,5.23,7.49,11.82,8.23,19.02C358.59,225.42,358.48,226.76,358.48,228.09z"/>
	<path class="st1" d="M190.99,266.95c-0.22-7.95,2.23-14.97,9.12-19.76c5.83-4.06,12.56-4.76,19.38-3.7
		c11.71,1.82,21.18,7.44,27.13,17.89c6.57,11.54,5.9,27.77-7.57,36.75c-8.2,5.46-17.07,5.3-25.74,1.54
		c-11.89-5.15-19.53-14.08-22.06-27.04C190.9,270.79,191.1,268.97,190.99,266.95z"/>
	<path class="st1" d="M295.65,233.81c0.01,4.87-0.77,9.6-2.45,14.19c-6.71,18.25-27.49,21.12-39.42,8.58
		c-10.75-11.3-14.26-25.03-9.78-40.18c2.92-9.88,10.23-15.12,20.3-16.34c9.85-1.19,18.07,2,24.09,10.07
		C293.59,217.14,295.61,225.19,295.65,233.81z"/>
</g>
</svg>
